<svg width="20" height="20" viewBox="0 0 20 20" fill="none" xmlns="http://www.w3.org/2000/svg">
<path d="M11.669 18.3388L10.7463 19.2854C10.3557 19.6862 9.72398 19.6862 9.33747 19.2854L1.25833 11.0005C0.867667 10.5997 0.867667 9.95162 1.25833 9.55507L9.33747 1.26594C9.72813 0.865129 10.3598 0.865129 10.7463 1.26594L11.669 2.21254C12.0638 2.61761 12.0555 3.27853 11.6523 3.67508L6.64442 8.5701H18.5886C19.1413 8.5701 19.586 9.02634 19.586 9.59344V10.9579C19.586 11.525 19.1413 11.9813 18.5886 11.9813H6.64442L11.6523 16.8763C12.0596 17.2728 12.0679 17.9337 11.669 18.3388Z" fill="#D9D9D9"/>
</svg>
