<svg width="27" height="27" viewBox="0 0 27 27" fill="none" xmlns="http://www.w3.org/2000/svg">
<path d="M19.2385 0.5C20.6191 0.500201 21.7385 1.61941 21.7385 3V26.5H5.26196V3C5.26196 1.61929 6.38125 0.5 7.76196 0.5H19.2385Z" stroke="white"/>
<path d="M24.9999 8.83325C25.8283 8.83325 26.4999 9.50482 26.4999 10.3333V25.0002C26.4997 25.8285 25.8282 26.5002 24.9999 26.5002H21.9286V10.3333C21.9286 9.50482 22.6002 8.83325 23.4286 8.83325H24.9999Z" stroke="white"/>
<path d="M2.00012 12.4048C1.1717 12.4048 0.500122 13.0764 0.500122 13.9048V25.0005C0.500373 25.8287 1.17185 26.5005 2.00012 26.5005H5.07141V13.9048C5.07141 13.0764 4.39984 12.4048 3.57141 12.4048H2.00012Z" stroke="white"/>
<rect x="9.83337" y="5.07153" width="7.33333" height="1.38095" rx="0.690476" fill="#00AA6F" stroke="white"/>
<rect x="9.83337" y="9.83325" width="7.33333" height="1.38095" rx="0.690476" fill="#00AA6F" stroke="white"/>
<rect x="9.83337" y="14.5952" width="7.33333" height="1.38095" rx="0.690476" fill="#00AA6F" stroke="white"/>
<rect x="9.83337" y="19.3572" width="7.33333" height="1.38095" rx="0.690476" fill="#00AA6F" stroke="white"/>
</svg>
