<svg width="37" height="36" viewBox="0 0 37 36" fill="none" xmlns="http://www.w3.org/2000/svg">
<path d="M27.2993 0.5C28.68 0.5 29.7993 1.61929 29.7993 3V35.499H7.15869V3C7.15869 1.61929 8.27798 0.5 9.65869 0.5H27.2993Z" stroke="#FF00D4"/>
<path d="M34.9587 11.834L35.1121 11.8418C35.8684 11.9186 36.4587 12.5574 36.4587 13.334V34C36.4587 34.8284 35.7871 35.4999 34.9587 35.5H30.4646V13.334C30.4646 12.5056 31.1362 11.834 31.9646 11.834H34.9587Z" stroke="#FF00D4"/>
<path d="M2 16.6904L1.84668 16.6982C1.09032 16.7751 0.5 17.4138 0.5 18.1904V34C0.500189 34.8282 1.17173 35.4999 2 35.5H6.49414V18.1904C6.49414 17.362 5.82257 16.6904 4.99414 16.6904H2Z" stroke="#FF00D4"/>
<rect x="12.6528" y="5.85742" width="11.6528" height="3.23804" rx="1.5" fill="#FF00D4"/>
<rect x="12.6528" y="12.334" width="11.6528" height="3.23804" rx="1.5" fill="#FF00D4"/>
<rect x="12.6528" y="18.8101" width="11.6528" height="3.23804" rx="1.5" fill="#FF00D4"/>
<rect x="12.6528" y="25.2861" width="11.6528" height="3.23804" rx="1.5" fill="#FF00D4"/>
</svg>
