<svg width="23" height="21" viewBox="0 0 23 21" fill="none" xmlns="http://www.w3.org/2000/svg">
<path d="M14.95 14H16.675C16.9625 14 17.25 13.65 17.25 13.3V5.95C17.25 5.6 16.9625 5.25 16.675 5.25H14.95C14.6625 5.25 14.375 5.6 14.375 5.95V13.3C14.375 13.65 14.6625 14 14.95 14ZM19.2625 14H20.9875C21.275 14 21.5625 13.65 21.5625 13.3V0.7C21.5625 0.35 21.275 0 20.9875 0H19.2625C18.975 0 18.6875 0.35 18.6875 0.7V13.3C18.6875 13.65 18.975 14 19.2625 14ZM6.325 14H8.05C8.3375 14 8.625 13.65 8.625 13.3V9.45C8.625 9.1 8.3375 8.75 8.05 8.75H6.325C6.0375 8.75 5.75 9.1 5.75 9.45V13.3C5.75 13.65 6.0375 14 6.325 14ZM10.6375 14H12.3625C12.65 14 12.9375 13.65 12.9375 13.3V2.45C12.9375 2.1 12.65 1.75 12.3625 1.75H10.6375C10.35 1.75 10.0625 2.1 10.0625 2.45V13.3C10.0625 13.65 10.35 14 10.6375 14ZM22.2812 17.5H2.875V0.875C2.875 0.391562 2.55336 0 2.15625 0H0.71875C0.321641 0 0 0.391562 0 0.875V19.25C0 20.2163 0.643731 21 1.4375 21H22.2812C22.6784 21 23 20.6084 23 20.125V18.375C23 17.8916 22.6784 17.5 22.2812 17.5Z" fill="white"/>
</svg>
