<svg width="35" height="15" viewBox="0 0 35 15" fill="none" xmlns="http://www.w3.org/2000/svg">
<path d="M12.6882 5.49219H9.88849C9.83736 5.12997 9.73295 4.80824 9.57528 4.52699C9.41761 4.24148 9.2152 3.99858 8.96804 3.7983C8.72088 3.59801 8.43537 3.4446 8.11151 3.33807C7.7919 3.23153 7.4446 3.17827 7.0696 3.17827C6.39205 3.17827 5.80185 3.34659 5.29901 3.68324C4.79617 4.01562 4.40625 4.50142 4.12926 5.14062C3.85227 5.77557 3.71378 6.54687 3.71378 7.45455C3.71378 8.38778 3.85227 9.17187 4.12926 9.80682C4.41051 10.4418 4.80256 10.9212 5.3054 11.245C5.80824 11.5689 6.38992 11.7308 7.05043 11.7308C7.42117 11.7308 7.7642 11.6818 8.07955 11.5838C8.39915 11.4858 8.68253 11.343 8.92969 11.1555C9.17685 10.9638 9.38139 10.7315 9.54332 10.4588C9.70952 10.1861 9.82457 9.875 9.88849 9.52557L12.6882 9.53835C12.6158 10.1392 12.4347 10.7188 12.1449 11.277C11.8594 11.831 11.4737 12.3274 10.9879 12.7663C10.5064 13.201 9.93111 13.5462 9.26207 13.8018C8.5973 14.0533 7.84517 14.179 7.00568 14.179C5.83807 14.179 4.79403 13.9148 3.87358 13.3864C2.95739 12.858 2.23295 12.093 1.70028 11.0916C1.17188 10.0902 0.90767 8.87784 0.90767 7.45455C0.90767 6.02699 1.17614 4.8125 1.71307 3.81108C2.25 2.80966 2.97869 2.04687 3.89915 1.52273C4.8196 0.994318 5.85511 0.730113 7.00568 0.730113C7.7642 0.730113 8.46733 0.836647 9.11506 1.04972C9.76705 1.26278 10.3445 1.57386 10.8473 1.98295C11.3501 2.38778 11.7592 2.88423 12.0746 3.4723C12.3942 4.06037 12.5987 4.73366 12.6882 5.49219ZM26.7028 7.45455C26.7028 8.8821 26.4322 10.0966 25.891 11.098C25.354 12.0994 24.6211 12.8643 23.6921 13.3928C22.7674 13.9169 21.7276 14.179 20.5728 14.179C19.4094 14.179 18.3654 13.9148 17.4407 13.3864C16.516 12.858 15.7852 12.093 15.2482 11.0916C14.7113 10.0902 14.4428 8.87784 14.4428 7.45455C14.4428 6.02699 14.7113 4.8125 15.2482 3.81108C15.7852 2.80966 16.516 2.04687 17.4407 1.52273C18.3654 0.994318 19.4094 0.730113 20.5728 0.730113C21.7276 0.730113 22.7674 0.994318 23.6921 1.52273C24.6211 2.04687 25.354 2.80966 25.891 3.81108C26.4322 4.8125 26.7028 6.02699 26.7028 7.45455ZM23.8967 7.45455C23.8967 6.52983 23.7582 5.75 23.4812 5.11506C23.2085 4.48011 22.8228 3.99858 22.3242 3.67045C21.8256 3.34233 21.2418 3.17827 20.5728 3.17827C19.9038 3.17827 19.32 3.34233 18.8214 3.67045C18.3228 3.99858 17.935 4.48011 17.658 5.11506C17.3853 5.75 17.2489 6.52983 17.2489 7.45455C17.2489 8.37926 17.3853 9.15909 17.658 9.79403C17.935 10.429 18.3228 10.9105 18.8214 11.2386C19.32 11.5668 19.9038 11.7308 20.5728 11.7308C21.2418 11.7308 21.8256 11.5668 22.3242 11.2386C22.8228 10.9105 23.2085 10.429 23.4812 9.79403C23.7582 9.15909 23.8967 8.37926 23.8967 7.45455ZM28.3226 14V12.6705L31.4292 9.79403C31.6934 9.53835 31.915 9.30824 32.0939 9.10369C32.2757 8.89915 32.4135 8.69886 32.5073 8.50284C32.601 8.30398 32.6479 8.08949 32.6479 7.85938C32.6479 7.60369 32.5897 7.38352 32.4732 7.19886C32.3567 7.01136 32.1976 6.8679 31.9959 6.76847C31.7942 6.66619 31.5655 6.61506 31.3098 6.61506C31.0428 6.61506 30.8098 6.66903 30.611 6.77699C30.4121 6.88494 30.2587 7.03977 30.1507 7.24148C30.0428 7.44318 29.9888 7.68324 29.9888 7.96165H28.2374C28.2374 7.39062 28.3667 6.89489 28.6252 6.47443C28.8837 6.05398 29.2459 5.72869 29.7118 5.49858C30.1777 5.26847 30.7147 5.15341 31.3226 5.15341C31.9476 5.15341 32.4917 5.2642 32.9547 5.4858C33.4206 5.70455 33.7828 6.00852 34.0414 6.39773C34.2999 6.78693 34.4292 7.23295 34.4292 7.7358C34.4292 8.06534 34.3638 8.39062 34.2331 8.71165C34.1053 9.03267 33.8766 9.3892 33.5471 9.78125C33.2175 10.1705 32.753 10.6378 32.1536 11.1832L30.8794 12.4318V12.4915H34.5442V14H28.3226Z" fill="white"/>
</svg>
