<svg width="56" height="42" viewBox="0 0 56 42" fill="none" xmlns="http://www.w3.org/2000/svg">
<path d="M12.0687 8.5H14.1322C14.4409 8.5 14.6644 8.73822 14.6644 9V28.5H43.0189C43.3275 28.5001 43.5502 28.7382 43.5502 29V31C43.5502 31.2618 43.3275 31.4999 43.0189 31.5H13.101C12.223 31.5 11.5375 30.8137 11.5375 30V9C11.5375 8.73833 11.7603 8.50021 12.0687 8.5ZM20.1156 18.5H22.5922C22.6413 18.5001 22.7289 18.5289 22.8119 18.6094C22.8954 18.6905 22.9173 18.7679 22.9174 18.7998V23.2002C22.9173 23.2321 22.8954 23.3095 22.8119 23.3906C22.7289 23.4711 22.6413 23.4999 22.5922 23.5H20.1156C20.0664 23.4998 19.9797 23.4709 19.8969 23.3906C19.813 23.3093 19.7905 23.2321 19.7904 23.2002V18.7998C19.7905 18.7679 19.813 18.6907 19.8969 18.6094C19.9797 18.5291 20.0664 18.5002 20.1156 18.5ZM26.306 10.5H28.7816C28.8308 10.5 28.9183 10.5288 29.0013 10.6094C29.0851 10.6906 29.1067 10.7679 29.1068 10.7998V23.2002C29.1067 23.2321 29.0851 23.3094 29.0013 23.3906C28.9183 23.4712 28.8308 23.5 28.7816 23.5H26.306C26.2569 23.5 26.1694 23.4712 26.0863 23.3906C26.0027 23.3094 25.9809 23.2321 25.9808 23.2002V10.7998C25.9809 10.7679 26.0027 10.6906 26.0863 10.6094C26.1694 10.5288 26.2569 10.5 26.306 10.5ZM32.4955 14.5H34.972C35.0212 14.5001 35.1088 14.5289 35.1918 14.6094C35.2753 14.6905 35.2972 14.7679 35.2972 14.7998V23.2002C35.2972 23.2321 35.2753 23.3095 35.1918 23.3906C35.1088 23.4711 35.0212 23.4999 34.972 23.5H32.4955C32.4463 23.4998 32.3596 23.4709 32.2767 23.3906C32.1929 23.3093 32.1704 23.2321 32.1703 23.2002V14.7998C32.1704 14.7679 32.1929 14.6907 32.2767 14.6094C32.3596 14.5291 32.4463 14.5002 32.4955 14.5ZM38.6859 8.5H41.1615C41.2106 8.5 41.2981 8.52884 41.3812 8.60938C41.465 8.69063 41.4866 8.76791 41.4867 8.7998V23.2002C41.4866 23.2321 41.465 23.3094 41.3812 23.3906C41.2981 23.4712 41.2106 23.5 41.1615 23.5H38.6859C38.6368 23.5 38.5493 23.4712 38.4662 23.3906C38.3826 23.3094 38.3608 23.2321 38.3607 23.2002V8.7998C38.3608 8.76793 38.3826 8.69058 38.4662 8.60938C38.5493 8.52884 38.6368 8.5 38.6859 8.5Z" fill="#FAFAFA" stroke="white"/>
<rect x="1" y="0.5" width="54" height="41" rx="9.5" stroke="white"/>
</svg>
