<svg width="35" height="34" viewBox="0 0 35 34" fill="none" xmlns="http://www.w3.org/2000/svg">
<path d="M27.5869 0C28.1392 0 28.5869 0.447715 28.5869 1V6H31.5C33.1569 6 34.5 7.34315 34.5 9V28C34.4998 29.1002 33.9057 30.0591 33.0225 30.5811V33C33.0223 33.552 32.5744 33.9997 32.0225 34H2.97852C2.42632 34 1.97867 33.5522 1.97852 33V30.582C1.09467 30.0602 0.50017 29.1007 0.5 28V9C0.5 7.34315 1.84315 6 3.5 6H6.41309V1C6.41309 0.447753 6.86085 6.15739e-05 7.41309 0H27.5869ZM14.3906 15.4531L17.2139 18H12.3262V21H13.8047V22H22.6738V21H24.1523V18H18.6084L15.2822 15L14.3906 15.4531ZM12.3262 2.00098V4.00098H13.8047V2.00098H12.3262ZM21.1953 2.00098V4.00098H22.6738V2.00098H21.1953Z" fill="#F9864E"/>
</svg>
