<svg width="23" height="23" viewBox="0 0 23 23" fill="none" xmlns="http://www.w3.org/2000/svg">
<path d="M16 0.5C17.3807 0.5 18.5 1.61929 18.5 3V22.5H4.5V3C4.5 1.61929 5.61929 0.5 7 0.5H16Z" stroke="#00AA6F"/>
<path d="M21 7.5C21.8284 7.5 22.5 8.17157 22.5 9V21C22.5 21.8284 21.8284 22.5 21 22.5H18.5V9C18.5 8.17157 19.1716 7.5 20 7.5H21Z" stroke="#00AA6F"/>
<path d="M2 10.5C1.17157 10.5 0.5 11.1716 0.5 12V21C0.5 21.8284 1.17157 22.5 2 22.5H4.5V12C4.5 11.1716 3.82843 10.5 3 10.5H2Z" stroke="#00AA6F"/>
<rect x="8" y="4" width="7" height="2" rx="1" fill="#00AA6F"/>
<rect x="8" y="8" width="7" height="2" rx="1" fill="#00AA6F"/>
<rect x="8" y="12" width="7" height="2" rx="1" fill="#00AA6F"/>
<rect x="8" y="16" width="7" height="2" rx="1" fill="#00AA6F"/>
</svg>
