<svg width="23" height="19" viewBox="0 0 23 19" fill="none" xmlns="http://www.w3.org/2000/svg">
<path d="M11.5 0.0214844C16.3973 0.0214844 20.6776 3.55622 22.8408 8.78613C22.931 9.00727 22.9785 9.25191 22.9785 9.5C22.9785 9.74809 22.931 9.99274 22.8408 10.2139C20.6788 15.4416 16.3973 18.9785 11.5 18.9785C6.60265 18.9785 2.32235 15.4438 0.15918 10.2139C0.0689984 9.99273 0.0214844 9.74809 0.0214844 9.5C0.0215156 9.25191 0.0689667 9.00726 0.15918 8.78613C2.32119 3.55835 6.60274 0.0214844 11.5 0.0214844ZM13.71 2.89844C12.6548 2.35691 11.4936 2.21501 10.373 2.49121C9.25255 2.76741 8.22375 3.44857 7.41699 4.44824C6.61031 5.44787 6.06127 6.72104 5.83887 8.10645C5.61646 9.4919 5.73069 10.9281 6.16699 12.2334C6.60333 13.5387 7.34293 14.6556 8.29199 15.4414C9.18173 16.1779 10.2186 16.5926 11.2861 16.6416L11.5 16.6465C12.2588 16.6469 13.0102 16.462 13.7109 16.1025C14.4115 15.7431 15.0483 15.2165 15.584 14.5527C16.1196 13.889 16.5444 13.1011 16.834 12.2344C17.1236 11.3674 17.2719 10.4381 17.2715 9.5L17.2676 9.23535C17.2281 7.91547 16.8938 6.6328 16.2998 5.53125C15.6662 4.35625 14.765 3.43995 13.71 2.89844ZM11.5 4.77148C12.2941 4.76917 13.0694 5.07571 13.7168 5.64844C14.3642 6.22133 14.8515 7.03211 15.1084 7.9668C15.3653 8.90159 15.3796 9.9133 15.1484 10.8584C14.9173 11.8035 14.4527 12.6344 13.8213 13.2344C13.1898 13.8343 12.4228 14.173 11.6289 14.2041C10.8352 14.2352 10.0531 13.9572 9.39258 13.4082C8.73187 12.859 8.2261 12.0658 7.94727 11.1406C7.67187 10.2268 7.6317 9.22999 7.83203 8.28711C8.1991 8.60964 8.64573 8.7659 9.09668 8.72363C9.55887 8.68029 9.9921 8.4326 10.3184 8.02832C10.6445 7.62411 10.8422 7.08907 10.877 6.52051C10.9111 5.96142 10.7844 5.40594 10.5205 4.9502C10.8394 4.83792 11.1686 4.77726 11.5 4.77148Z" fill="white" stroke="#1D282F" stroke-width="0.0434028"/>
</svg>
