<svg width="23" height="21" viewBox="0 0 23 21" fill="none" xmlns="http://www.w3.org/2000/svg">
<path d="M11.501 5.34277C11.5798 5.34287 11.657 5.36717 11.7256 5.41211L11.791 5.46387L19.1445 12.5713V20.25C19.1445 20.4442 19.0781 20.6302 18.9619 20.7666C18.8459 20.9026 18.6895 20.9784 18.5273 20.9785L14.0547 20.9639C13.974 20.9639 13.8931 20.9446 13.8184 20.9082C13.7438 20.8718 13.6755 20.8186 13.6182 20.751C13.5607 20.6833 13.5155 20.6025 13.4844 20.5137C13.4533 20.4249 13.4373 20.3296 13.4375 20.2334V15.749C13.4374 15.5456 13.3683 15.3499 13.2451 15.2051C13.1216 15.0601 12.9528 14.9775 12.7764 14.9775H10.2217C10.0453 14.9775 9.87644 15.0601 9.75293 15.2051C9.62965 15.3499 9.56063 15.5455 9.56055 15.749V20.2363C9.56055 20.4298 9.49529 20.6147 9.37988 20.751C9.26444 20.8872 9.10821 20.9639 8.94629 20.9648L4.47266 20.9785C4.31026 20.9785 4.1532 20.9028 4.03711 20.7666C3.92093 20.6302 3.85549 20.4442 3.85547 20.25V12.5752L11.21 5.46387C11.2928 5.38549 11.3958 5.34277 11.501 5.34277ZM16.7705 0.0214844H19.0059C19.1259 0.0214844 19.242 0.0776734 19.3281 0.178711C19.4144 0.279958 19.4639 0.418052 19.4639 0.5625V7.06543L19.4697 7.07129L22.8076 10.3018H22.8086C22.8554 10.3464 22.894 10.4021 22.9229 10.4648C22.9517 10.5278 22.9695 10.5976 22.9756 10.6689C22.9816 10.7402 22.9757 10.8124 22.958 10.8809C22.9403 10.9492 22.9114 11.0125 22.873 11.0674L21.8555 12.5205C21.817 12.5751 21.7696 12.6204 21.7168 12.6533C21.6638 12.6863 21.6052 12.7073 21.5459 12.7139C21.4868 12.7204 21.427 12.7129 21.3701 12.6924C21.313 12.6718 21.2593 12.6379 21.2129 12.5928L11.8213 3.51074V3.50977L11.749 3.45312C11.6739 3.40405 11.5885 3.37802 11.501 3.37793C11.3839 3.37793 11.2699 3.42436 11.1797 3.50977V3.51074L1.78809 12.5928C1.7416 12.6378 1.68803 12.6718 1.63086 12.6924C1.57391 12.7128 1.51421 12.7195 1.45508 12.7129C1.39571 12.7062 1.33715 12.6864 1.28418 12.6533C1.2312 12.6202 1.18396 12.5744 1.14551 12.5195L0.12793 11.0664C0.0893663 11.0117 0.059875 10.9481 0.0419922 10.8799C0.0241542 10.8117 0.0177268 10.74 0.0234375 10.6689C0.0291672 10.5979 0.0468592 10.5287 0.0751953 10.4658C0.103609 10.4029 0.143011 10.3468 0.189453 10.3018L10.2959 0.529297C10.6351 0.201553 11.06 0.0225877 11.498 0.0224609C11.9362 0.0224609 12.3618 0.201436 12.7012 0.529297L16.2764 3.98242L16.3125 4.01758V0.5625C16.3125 0.418052 16.362 0.279958 16.4482 0.178711C16.5344 0.0777215 16.6505 0.0214844 16.7705 0.0214844Z" fill="white" stroke="#1D282F" stroke-width="0.0434028"/>
</svg>
