<svg width="34" height="34" viewBox="0 0 34 34" fill="none" xmlns="http://www.w3.org/2000/svg">
<path d="M33.6173 29.2196C34.7069 31.3442 33.3392 34 31.1631 34H2.83654C0.656229 34 -0.70507 31.3401 0.38234 29.2196L14.5458 1.59275C15.6359 -0.532843 18.3661 -0.528992 19.4542 1.59275L33.6173 29.2196ZM17 23.5078C15.5004 23.5078 14.2847 24.8755 14.2847 26.5625C14.2847 28.2495 15.5004 29.6172 17 29.6172C18.4996 29.6172 19.7153 28.2495 19.7153 26.5625C19.7153 24.8755 18.4996 23.5078 17 23.5078ZM14.4221 12.5278L14.86 21.5591C14.8804 21.9817 15.191 22.3125 15.5672 22.3125H18.4328C18.809 22.3125 19.1196 21.9817 19.1401 21.5591L19.5779 12.5278C19.6001 12.0713 19.277 11.6875 18.8707 11.6875H15.1293C14.723 11.6875 14.4 12.0713 14.4221 12.5278Z" fill="#EF4444"/>
</svg>
