<svg width="34" height="34" viewBox="0 0 34 34" fill="none" xmlns="http://www.w3.org/2000/svg">
<path d="M26.4434 23.1846C30.9601 24.1867 33.9998 26.0579 34 28.2031C34 31.4041 27.2342 33.999 18.8887 33.999C10.5432 33.9989 3.77734 31.4041 3.77734 28.2031C3.77758 26.058 6.81685 24.1867 11.333 23.1846V26.2031C11.3332 27.3073 12.2288 28.2029 13.333 28.2031H24.4434C25.5478 28.2031 26.4431 27.3075 26.4434 26.2031V23.1846ZM20.7773 20.2861H21.5557C23.2123 20.2862 24.5554 21.6286 24.5557 23.2852V25.5303C24.5557 26.6348 23.6602 27.5302 22.5557 27.5303H20.7773V27.5312L17 27.5303H15.2227C14.1181 27.5303 13.2227 26.6348 13.2227 25.5303V23.2852C13.2229 21.6285 14.566 20.2861 16.2227 20.2861H17V17.3887H20.7773V20.2861ZM12.2227 0C12.7748 0.000131346 13.2227 0.447796 13.2227 1V1.44922H16C16.5523 1.44922 17 1.89693 17 2.44922V4.34766H13.2227V7.24512H20.667C21.7713 7.24526 22.6667 8.13989 22.667 9.24414V17.3877H15.1113V13.041H5.66699V14.9385C5.66693 15.4906 5.21909 15.9383 4.66699 15.9385H0V4.34668H4.66699C5.21913 4.34685 5.66699 4.7945 5.66699 5.34668V7.24512H9.44434V4.34766H5.66699V2.44922C5.66699 1.89693 6.11471 1.44922 6.66699 1.44922H9.44434V1C9.44434 0.447813 9.89219 0.000158183 10.4443 0H12.2227Z" fill="#00C0FF"/>
</svg>
